999
"DXF R12 Output" (www.mydxf.blogspot.com)
 0 
SECTION
 2 
HEADER
 9 
$ACADVER
 1 
AC1009
 9 
$EXTMIN
 10 
 0 
 20 
 0 
 9 
$EXTMAX
 10 
 8.5 
 20 
 11 
 0 
ENDSEC
 0 
SECTION
 2 
ENTITIES
0
LINE
8
Calque 1
10
94.864765
20
260.795732
11
88.115651
21
260.486667
0
LINE
8
Calque 1
10
88.115651
20
260.486667
11
81.619295
21
259.628060
0
LINE
8
Calque 1
10
81.619295
20
259.628060
11
75.462202
21
258.252842
0
LINE
8
Calque 1
10
75.462202
20
258.252842
11
69.730880
21
256.393944
0
LINE
8
Calque 1
10
69.730880
20
256.393944
11
67.051917
21
255.293406
0
LINE
8
Calque 1
10
67.051917
20
255.293406
11
64.511835
21
254.084297
0
LINE
8
Calque 1
10
64.511835
20
254.084297
11
62.121450
21
252.770734
0
LINE
8
Calque 1
10
62.121450
20
252.770734
11
59.891574
21
251.356832
0
LINE
8
Calque 1
10
59.891574
20
251.356832
11
57.833020
21
249.846709
0
LINE
8
Calque 1
10
57.833020
20
249.846709
11
55.956603
21
248.244480
0
LINE
8
Calque 1
10
55.956603
20
248.244480
11
54.273134
21
246.554262
0
LINE
8
Calque 1
10
54.273134
20
246.554262
11
52.793428
21
244.780172
0
LINE
8
Calque 1
10
52.793428
20
244.780172
11
49.624629
21
238.746432
0
LINE
8
Calque 1
10
49.624629
20
238.746432
11
49.499055
21
238.373845
0
LINE
8
Calque 1
10
49.499055
20
238.373845
11
49.066524
21
237.575961
0
LINE
8
Calque 1
10
49.066524
20
237.575961
11
49.009684
21
237.575961
0
LINE
8
Calque 1
10
49.009684
20
237.575961
11
47.287304
21
234.296574
0
LINE
8
Calque 1
10
47.287304
20
234.296574
11
5.769425
21
157.763780
0
LINE
8
Calque 1
10
5.769425
20
157.763780
11
5.282580
21
156.456245
0
LINE
8
Calque 1
10
5.282580
20
156.456245
11
4.995829
21
155.029060
0
LINE
8
Calque 1
10
4.995829
20
155.029060
11
4.995829
21
153.768150
0
LINE
8
Calque 1
10
4.995829
20
153.768150
11
4.972569
21
153.723750
0
LINE
8
Calque 1
10
4.972569
20
153.723750
11
4.972569
21
129.094250
0
LINE
8
Calque 1
10
4.972569
20
129.094250
11
19.972171
21
129.094250
0
LINE
8
Calque 1
10
19.972171
20
129.094250
11
19.972171
21
57.096060
0
LINE
8
Calque 1
10
19.972171
20
57.096060
11
4.972574
21
57.096060
0
LINE
8
Calque 1
10
4.972574
20
57.096060
11
4.972574
21
40.795760
0
LINE
8
Calque 1
10
4.972574
20
40.795760
11
19.541711
21
40.795760
0
LINE
8
Calque 1
10
19.541711
20
40.795760
11
26.242718
21
42.123563
0
LINE
8
Calque 1
10
26.242718
20
42.123563
11
33.928762
21
43.303989
0
LINE
8
Calque 1
10
33.928762
20
43.303989
11
42.486899
21
44.328001
0
LINE
8
Calque 1
10
42.486899
20
44.328001
11
51.804181
21
45.186564
0
LINE
8
Calque 1
10
51.804181
20
45.186564
11
61.767666
21
45.870640
0
LINE
8
Calque 1
10
61.767666
20
45.870640
11
72.264406
21
46.371192
0
LINE
8
Calque 1
10
72.264406
20
46.371192
11
83.181458
21
46.679184
0
LINE
8
Calque 1
10
83.181458
20
46.679184
11
94.405875
21
46.785580
0
LINE
8
Calque 1
10
94.405875
20
46.785580
11
105.648268
21
46.681294
0
LINE
8
Calque 1
10
105.648268
20
46.681294
11
116.583941
21
46.374754
0
LINE
8
Calque 1
10
116.583941
20
46.374754
11
127.099401
21
45.875022
0
LINE
8
Calque 1
10
127.099401
20
45.875022
11
137.081157
21
45.191164
0
LINE
8
Calque 1
10
137.081157
20
45.191164
11
146.415717
21
44.332244
0
LINE
8
Calque 1
10
146.415717
20
44.332244
11
154.989588
21
43.307328
0
LINE
8
Calque 1
10
154.989588
20
43.307328
11
162.689280
21
42.125478
0
LINE
8
Calque 1
10
162.689280
20
42.125478
11
169.401300
21
40.795760
0
LINE
8
Calque 1
10
169.401300
20
40.795760
11
183.794220
21
40.795760
0
LINE
8
Calque 1
10
183.794220
20
40.795760
11
183.794220
21
57.096060
0
LINE
8
Calque 1
10
183.794220
20
57.096060
11
168.794620
21
57.096060
0
LINE
8
Calque 1
10
168.794620
20
57.096060
11
168.794620
21
129.094210
0
LINE
8
Calque 1
10
168.794620
20
129.094210
11
183.794220
21
129.094210
0
LINE
8
Calque 1
10
183.794220
20
129.094210
11
183.794220
21
153.310300
0
LINE
8
Calque 1
10
183.794220
20
153.310300
11
183.751820
21
153.288600
0
LINE
8
Calque 1
10
183.751820
20
153.288600
11
183.577050
21
155.589389
0
LINE
8
Calque 1
10
183.577050
20
155.589389
11
182.915180
21
157.640790
0
LINE
8
Calque 1
10
182.915180
20
157.640790
11
182.608220
21
158.225250
0
LINE
8
Calque 1
10
182.608220
20
158.225250
11
182.473340
21
158.464510
0
LINE
8
Calque 1
10
182.473340
20
158.464510
11
182.480340
21
158.468510
0
LINE
8
Calque 1
10
182.480340
20
158.468510
11
140.934560
21
237.576347
0
LINE
8
Calque 1
10
140.934560
20
237.576347
11
140.841060
21
237.576347
0
LINE
8
Calque 1
10
140.841060
20
237.576347
11
140.673630
21
238.073991
0
LINE
8
Calque 1
10
140.673630
20
238.073991
11
136.905380
21
245.249781
0
LINE
8
Calque 1
10
136.905380
20
245.249781
11
135.395351
21
246.977291
0
LINE
8
Calque 1
10
135.395351
20
246.977291
11
133.690720
21
248.622018
0
LINE
8
Calque 1
10
133.690720
20
248.622018
11
131.801839
21
250.180103
0
LINE
8
Calque 1
10
131.801839
20
250.180103
11
129.739058
21
251.647690
0
LINE
8
Calque 1
10
129.739058
20
251.647690
11
127.512728
21
253.020920
0
LINE
8
Calque 1
10
127.512728
20
253.020920
11
125.133201
21
254.295937
0
LINE
8
Calque 1
10
125.133201
20
254.295937
11
122.610827
21
255.468884
0
LINE
8
Calque 1
10
122.610827
20
255.468884
11
119.955957
21
256.535901
0
LINE
8
Calque 1
10
119.955957
20
256.535901
11
114.290135
21
258.336722
0
LINE
8
Calque 1
10
114.290135
20
258.336722
11
108.218544
21
259.667541
0
LINE
8
Calque 1
10
108.218544
20
259.667541
11
101.823991
21
260.497497
0
LINE
8
Calque 1
10
101.823991
20
260.497497
11
95.189285
21
260.795732
0
LINE
8
Calque 1
10
95.189285
20
260.795732
11
94.864765
21
260.795732
0
LINE
8
Calque 1
10
75.672652
20
233.188115
11
76.629417
21
232.997834
0
LINE
8
Calque 1
10
76.629417
20
232.997834
11
77.440524
21
232.455882
0
LINE
8
Calque 1
10
77.440524
20
232.455882
11
77.982476
21
231.644774
0
LINE
8
Calque 1
10
77.982476
20
231.644774
11
78.172757
21
230.688009
0
LINE
8
Calque 1
10
78.172757
20
230.688009
11
77.982476
21
229.731244
0
LINE
8
Calque 1
10
77.982476
20
229.731244
11
77.440524
21
228.920136
0
LINE
8
Calque 1
10
77.440524
20
228.920136
11
76.629417
21
228.378184
0
LINE
8
Calque 1
10
76.629417
20
228.378184
11
75.672652
21
228.187903
0
LINE
8
Calque 1
10
75.672652
20
228.187903
11
74.699645
21
228.384494
0
LINE
8
Calque 1
10
74.699645
20
228.384494
11
73.905113
21
228.920319
0
LINE
8
Calque 1
10
73.905113
20
228.920319
11
73.369453
21
229.714962
0
LINE
8
Calque 1
10
73.369453
20
229.714962
11
73.173063
21
230.688009
0
LINE
8
Calque 1
10
73.173063
20
230.688009
11
73.369453
21
231.661056
0
LINE
8
Calque 1
10
73.369453
20
231.661056
11
73.905113
21
232.455699
0
LINE
8
Calque 1
10
73.905113
20
232.455699
11
74.699645
21
232.991524
0
LINE
8
Calque 1
10
74.699645
20
232.991524
11
75.672652
21
233.188115
0
LINE
8
Calque 1
10
75.672652
20
233.188115
11
75.672652
21
233.188115
0
LINE
8
Calque 1
10
114.272880
20
233.188115
11
115.229647
21
232.997835
0
LINE
8
Calque 1
10
115.229647
20
232.997835
11
116.040756
21
232.455883
0
LINE
8
Calque 1
10
116.040756
20
232.455883
11
116.582709
21
231.644776
0
LINE
8
Calque 1
10
116.582709
20
231.644776
11
116.772990
21
230.688009
0
LINE
8
Calque 1
10
116.772990
20
230.688009
11
116.582709
21
229.731242
0
LINE
8
Calque 1
10
116.582709
20
229.731242
11
116.040756
21
228.920135
0
LINE
8
Calque 1
10
116.040756
20
228.920135
11
115.229647
21
228.378183
0
LINE
8
Calque 1
10
115.229647
20
228.378183
11
114.272880
21
228.187903
0
LINE
8
Calque 1
10
114.272880
20
228.187903
11
113.316116
21
228.378186
0
LINE
8
Calque 1
10
113.316116
20
228.378186
11
112.505011
21
228.920138
0
LINE
8
Calque 1
10
112.505011
20
228.920138
11
111.963060
21
229.731245
0
LINE
8
Calque 1
10
111.963060
20
229.731245
11
111.772780
21
230.688009
0
LINE
8
Calque 1
10
111.772780
20
230.688009
11
111.963060
21
231.644773
0
LINE
8
Calque 1
10
111.963060
20
231.644773
11
112.505011
21
232.455880
0
LINE
8
Calque 1
10
112.505011
20
232.455880
11
113.316116
21
232.997832
0
LINE
8
Calque 1
10
113.316116
20
232.997832
11
114.272880
21
233.188115
0
LINE
8
Calque 1
10
114.272880
20
233.188115
11
114.272880
21
233.188115
0
LINE
8
Calque 1
10
79.483272
20
191.580320
11
109.283520
21
191.580320
0
LINE
8
Calque 1
10
109.283520
20
191.580320
11
109.283520
21
188.580500
0
LINE
8
Calque 1
10
109.283520
20
188.580500
11
79.483272
21
188.580500
0
LINE
8
Calque 1
10
79.483272
20
188.580500
11
79.483272
21
191.580320
0
LINE
8
Calque 1
10
70.383569
20
168.795150
11
71.278774
21
168.614479
0
LINE
8
Calque 1
10
71.278774
20
168.614479
11
72.009849
21
168.121679
0
LINE
8
Calque 1
10
72.009849
20
168.121679
11
72.502814
21
167.390714
0
LINE
8
Calque 1
10
72.502814
20
167.390714
11
72.683687
21
166.495550
0
LINE
8
Calque 1
10
72.683687
20
166.495550
11
72.508633
21
165.615314
0
LINE
8
Calque 1
10
72.508633
20
165.615314
11
72.010033
21
164.869085
0
LINE
8
Calque 1
10
72.010033
20
164.869085
11
71.263805
21
164.370485
0
LINE
8
Calque 1
10
71.263805
20
164.370485
11
70.383569
21
164.195430
0
LINE
8
Calque 1
10
70.383569
20
164.195430
11
69.503333
21
164.370485
0
LINE
8
Calque 1
10
69.503333
20
164.370485
11
68.757105
21
164.869085
0
LINE
8
Calque 1
10
68.757105
20
164.869085
11
68.258505
21
165.615314
0
LINE
8
Calque 1
10
68.258505
20
165.615314
11
68.083451
21
166.495550
0
LINE
8
Calque 1
10
68.083451
20
166.495550
11
68.264324
21
167.390714
0
LINE
8
Calque 1
10
68.264324
20
167.390714
11
68.757289
21
168.121679
0
LINE
8
Calque 1
10
68.757289
20
168.121679
11
69.488364
21
168.614479
0
LINE
8
Calque 1
10
69.488364
20
168.614479
11
70.383569
21
168.795150
0
LINE
8
Calque 1
10
70.383569
20
168.795150
11
70.383569
21
168.795150
0
LINE
8
Calque 1
10
110.683440
20
168.795150
11
111.578645
21
168.614480
0
LINE
8
Calque 1
10
111.578645
20
168.614480
11
112.309722
21
168.121679
0
LINE
8
Calque 1
10
112.309722
20
168.121679
11
112.802687
21
167.390714
0
LINE
8
Calque 1
10
112.802687
20
167.390714
11
112.983560
21
166.495550
0
LINE
8
Calque 1
10
112.983560
20
166.495550
11
112.808506
21
165.615314
0
LINE
8
Calque 1
10
112.808506
20
165.615314
11
112.309906
21
164.869084
0
LINE
8
Calque 1
10
112.309906
20
164.869084
11
111.563676
21
164.370484
0
LINE
8
Calque 1
10
111.563676
20
164.370484
11
110.683440
21
164.195430
0
LINE
8
Calque 1
10
110.683440
20
164.195430
11
109.803204
21
164.370484
0
LINE
8
Calque 1
10
109.803204
20
164.370484
11
109.056974
21
164.869084
0
LINE
8
Calque 1
10
109.056974
20
164.869084
11
108.558374
21
165.615314
0
LINE
8
Calque 1
10
108.558374
20
165.615314
11
108.383320
21
166.495550
0
LINE
8
Calque 1
10
108.383320
20
166.495550
11
108.564193
21
167.390714
0
LINE
8
Calque 1
10
108.564193
20
167.390714
11
109.057158
21
168.121679
0
LINE
8
Calque 1
10
109.057158
20
168.121679
11
109.788235
21
168.614480
0
LINE
8
Calque 1
10
109.788235
20
168.614480
11
110.683440
21
168.795150
0
LINE
8
Calque 1
10
110.683440
20
168.795150
11
110.683440
21
168.795150
0
LINE
8
Calque 1
10
105.357670
20
166.595800
11
97.885765
21
161.956800
0
LINE
8
Calque 1
10
97.885765
20
161.956800
11
90.413875
21
157.317810
0
LINE
8
Calque 1
10
90.413875
20
157.317810
11
82.902185
21
161.948530
0
LINE
8
Calque 1
10
82.902185
20
161.948530
11
75.390498
21
166.579260
0
LINE
8
Calque 1
10
75.390498
20
166.579260
11
90.374075
21
166.587260
0
LINE
8
Calque 1
10
90.374075
20
166.587260
11
105.357670
21
166.595800
0
LINE
8
Calque 1
10
70.089530
20
161.800220
11
77.530419
21
158.290880
0
LINE
8
Calque 1
10
77.530419
20
158.290880
11
84.971305
21
154.781530
0
LINE
8
Calque 1
10
84.971305
20
154.781530
11
77.517500
21
151.291300
0
LINE
8
Calque 1
10
77.517500
20
151.291300
11
70.063175
21
147.800560
0
LINE
8
Calque 1
10
70.063175
20
147.800560
11
70.076615
21
154.800650
0
LINE
8
Calque 1
10
70.076615
20
154.800650
11
70.089530
21
161.800220
0
LINE
8
Calque 1
10
110.665350
20
161.800220
11
110.678250
21
154.800650
0
LINE
8
Calque 1
10
110.678250
20
154.800650
11
110.691650
21
147.800560
0
LINE
8
Calque 1
10
110.691650
20
147.800560
11
103.237320
21
151.291300
0
LINE
8
Calque 1
10
103.237320
20
151.291300
11
95.782995
21
154.781530
0
LINE
8
Calque 1
10
95.782995
20
154.781530
11
103.223890
21
158.290880
0
LINE
8
Calque 1
10
103.223890
20
158.290880
11
110.665350
21
161.800220
0
LINE
8
Calque 1
10
90.413875
20
151.685590
11
97.885765
21
147.046600
0
LINE
8
Calque 1
10
97.885765
20
147.046600
11
105.357670
21
142.407610
0
LINE
8
Calque 1
10
105.357670
20
142.407610
11
90.374075
21
142.415610
0
LINE
8
Calque 1
10
90.374075
20
142.415610
11
75.390498
21
142.423610
0
LINE
8
Calque 1
10
75.390498
20
142.423610
11
82.902185
21
147.054330
0
LINE
8
Calque 1
10
82.902185
20
147.054330
11
90.413875
21
151.685590
0
LINE
8
Calque 1
10
70.383569
20
144.595590
11
71.263805
21
144.420535
0
LINE
8
Calque 1
10
71.263805
20
144.420535
11
72.010033
21
143.921935
0
LINE
8
Calque 1
10
72.010033
20
143.921935
11
72.508633
21
143.175706
0
LINE
8
Calque 1
10
72.508633
20
143.175706
11
72.683687
21
142.295470
0
LINE
8
Calque 1
10
72.683687
20
142.295470
11
72.508633
21
141.415234
0
LINE
8
Calque 1
10
72.508633
20
141.415234
11
72.010033
21
140.669005
0
LINE
8
Calque 1
10
72.010033
20
140.669005
11
71.263805
21
140.170405
0
LINE
8
Calque 1
10
71.263805
20
140.170405
11
70.383569
21
139.995350
0
LINE
8
Calque 1
10
70.383569
20
139.995350
11
69.503333
21
140.170405
0
LINE
8
Calque 1
10
69.503333
20
140.170405
11
68.757105
21
140.669005
0
LINE
8
Calque 1
10
68.757105
20
140.669005
11
68.258505
21
141.415234
0
LINE
8
Calque 1
10
68.258505
20
141.415234
11
68.083451
21
142.295470
0
LINE
8
Calque 1
10
68.083451
20
142.295470
11
68.258505
21
143.175706
0
LINE
8
Calque 1
10
68.258505
20
143.175706
11
68.757105
21
143.921935
0
LINE
8
Calque 1
10
68.757105
20
143.921935
11
69.503333
21
144.420535
0
LINE
8
Calque 1
10
69.503333
20
144.420535
11
70.383569
21
144.595590
0
LINE
8
Calque 1
10
70.383569
20
144.595590
11
70.383569
21
144.595590
0
LINE
8
Calque 1
10
110.683440
20
144.595590
11
111.563676
21
144.420536
0
LINE
8
Calque 1
10
111.563676
20
144.420536
11
112.309906
21
143.921936
0
LINE
8
Calque 1
10
112.309906
20
143.921936
11
112.808506
21
143.175706
0
LINE
8
Calque 1
10
112.808506
20
143.175706
11
112.983560
21
142.295470
0
LINE
8
Calque 1
10
112.983560
20
142.295470
11
112.808506
21
141.415234
0
LINE
8
Calque 1
10
112.808506
20
141.415234
11
112.309906
21
140.669004
0
LINE
8
Calque 1
10
112.309906
20
140.669004
11
111.563676
21
140.170404
0
LINE
8
Calque 1
10
111.563676
20
140.170404
11
110.683440
21
139.995350
0
LINE
8
Calque 1
10
110.683440
20
139.995350
11
109.803204
21
140.170404
0
LINE
8
Calque 1
10
109.803204
20
140.170404
11
109.056974
21
140.669004
0
LINE
8
Calque 1
10
109.056974
20
140.669004
11
108.558374
21
141.415234
0
LINE
8
Calque 1
10
108.558374
20
141.415234
11
108.383320
21
142.295470
0
LINE
8
Calque 1
10
108.383320
20
142.295470
11
108.558374
21
143.175706
0
LINE
8
Calque 1
10
108.558374
20
143.175706
11
109.056974
21
143.921936
0
LINE
8
Calque 1
10
109.056974
20
143.921936
11
109.803204
21
144.420536
0
LINE
8
Calque 1
10
109.803204
20
144.420536
11
110.683440
21
144.595590
0
LINE
8
Calque 1
10
110.683440
20
144.595590
11
110.683440
21
144.595590
0
LINE
8
Calque 1
10
54.822762
20
119.753690
11
55.339548
21
119.650986
0
LINE
8
Calque 1
10
55.339548
20
119.650986
11
55.777659
21
119.358286
0
LINE
8
Calque 1
10
55.777659
20
119.358286
11
56.070361
21
118.920175
0
LINE
8
Calque 1
10
56.070361
20
118.920175
11
56.173067
21
118.403390
0
LINE
8
Calque 1
10
56.173067
20
118.403390
11
56.070215
21
117.886761
0
LINE
8
Calque 1
10
56.070215
20
117.886761
11
55.777479
21
117.448824
0
LINE
8
Calque 1
10
55.777479
20
117.448824
11
55.339430
21
117.156255
0
LINE
8
Calque 1
10
55.339430
20
117.156255
11
54.822762
21
117.053600
0
LINE
8
Calque 1
10
54.822762
20
117.053600
11
54.297400
21
117.159729
0
LINE
8
Calque 1
10
54.297400
20
117.159729
11
53.868378
21
117.449006
0
LINE
8
Calque 1
10
53.868378
20
117.449006
11
53.579102
21
117.878028
0
LINE
8
Calque 1
10
53.579102
20
117.878028
11
53.472973
21
118.403390
0
LINE
8
Calque 1
10
53.472973
20
118.403390
11
53.575629
21
118.920056
0
LINE
8
Calque 1
10
53.575629
20
118.920056
11
53.868198
21
119.358103
0
LINE
8
Calque 1
10
53.868198
20
119.358103
11
54.306135
21
119.650838
0
LINE
8
Calque 1
10
54.306135
20
119.650838
11
54.822762
21
119.753690
0
LINE
8
Calque 1
10
54.822762
20
119.753690
11
54.822762
21
119.753690
0
LINE
8
Calque 1
10
112.822840
20
119.753690
11
113.339467
21
119.650838
0
LINE
8
Calque 1
10
113.339467
20
119.650838
11
113.777404
21
119.358104
0
LINE
8
Calque 1
10
113.777404
20
119.358104
11
114.069974
21
118.920056
0
LINE
8
Calque 1
10
114.069974
20
118.920056
11
114.172630
21
118.403390
0
LINE
8
Calque 1
10
114.172630
20
118.403390
11
114.066501
21
117.878027
0
LINE
8
Calque 1
10
114.066501
20
117.878027
11
113.777224
21
117.449006
0
LINE
8
Calque 1
10
113.777224
20
117.449006
11
113.348203
21
117.159729
0
LINE
8
Calque 1
10
113.348203
20
117.159729
11
112.822840
21
117.053600
0
LINE
8
Calque 1
10
112.822840
20
117.053600
11
112.297481
21
117.159732
0
LINE
8
Calque 1
10
112.297481
20
117.159732
11
111.868462
21
117.449009
0
LINE
8
Calque 1
10
111.868462
20
117.449009
11
111.579188
21
117.878030
0
LINE
8
Calque 1
10
111.579188
20
117.878030
11
111.473060
21
118.403390
0
LINE
8
Calque 1
10
111.473060
20
118.403390
11
111.575715
21
118.920054
0
LINE
8
Calque 1
10
111.575715
20
118.920054
11
111.868282
21
119.358100
0
LINE
8
Calque 1
10
111.868282
20
119.358100
11
112.306216
21
119.650836
0
LINE
8
Calque 1
10
112.306216
20
119.650836
11
112.822840
21
119.753690
0
LINE
8
Calque 1
10
112.822840
20
119.753690
11
112.822840
21
119.753690
0
LINE
8
Calque 1
10
62.601615
20
119.304620
11
84.420955
21
119.215220
0
LINE
8
Calque 1
10
84.420955
20
119.215220
11
106.240300
21
119.126320
0
LINE
8
Calque 1
10
106.240300
20
119.126320
11
95.242515
21
108.215360
0
LINE
8
Calque 1
10
95.242515
20
108.215360
11
84.245255
21
97.304400
0
LINE
8
Calque 1
10
84.245255
20
97.304400
11
73.423177
21
108.304240
0
LINE
8
Calque 1
10
73.423177
20
108.304240
11
62.601615
21
119.304620
0
LINE
8
Calque 1
10
113.219720
20
110.097430
11
113.274020
21
94.097380
0
LINE
8
Calque 1
10
113.274020
20
94.097380
11
113.328320
21
78.097320
0
LINE
8
Calque 1
10
113.328320
20
78.097320
11
101.683550
21
86.038960
0
LINE
8
Calque 1
10
101.683550
20
86.038960
11
90.038265
21
93.980070
0
LINE
8
Calque 1
10
90.038265
20
93.980070
11
101.628780
21
102.039010
0
LINE
8
Calque 1
10
101.628780
20
102.039010
11
113.219720
21
110.097430
0
LINE
8
Calque 1
10
54.384545
20
110.065930
11
66.006058
21
102.058150
0
LINE
8
Calque 1
10
66.006058
20
102.058150
11
77.627571
21
94.050370
0
LINE
8
Calque 1
10
77.627571
20
94.050370
11
66.013293
21
86.058100
0
LINE
8
Calque 1
10
66.013293
20
86.058100
11
54.399015
21
78.065820
0
LINE
8
Calque 1
10
54.399015
20
78.065820
11
54.391815
21
94.065880
0
LINE
8
Calque 1
10
54.391815
20
94.065880
11
54.384545
21
110.065930
0
LINE
8
Calque 1
10
42.798172
20
98.601520
11
45.798506
21
98.601520
0
LINE
8
Calque 1
10
45.798506
20
98.601520
11
45.798506
21
83.601400
0
LINE
8
Calque 1
10
45.798506
20
83.601400
11
42.798172
21
83.601400
0
LINE
8
Calque 1
10
42.798172
20
83.601400
11
42.798172
21
98.601520
0
LINE
8
Calque 1
10
142.877340
20
98.601520
11
145.877670
21
98.601520
0
LINE
8
Calque 1
10
145.877670
20
98.601520
11
145.877670
21
83.601400
0
LINE
8
Calque 1
10
145.877670
20
83.601400
11
142.877340
21
83.601400
0
LINE
8
Calque 1
10
142.877340
20
83.601400
11
142.877340
21
98.601520
0
LINE
8
Calque 1
10
84.245255
20
90.972010
11
95.242515
21
80.061050
0
LINE
8
Calque 1
10
95.242515
20
80.061050
11
106.240300
21
69.150080
0
LINE
8
Calque 1
10
106.240300
20
69.150080
11
84.420955
21
69.061180
0
LINE
8
Calque 1
10
84.420955
20
69.061180
11
62.601615
21
68.971780
0
LINE
8
Calque 1
10
62.601615
20
68.971780
11
73.423177
21
79.972140
0
LINE
8
Calque 1
10
73.423177
20
79.972140
11
84.245255
21
90.972010
0
LINE
8
Calque 1
10
54.822762
20
70.753600
11
55.339548
21
70.650896
0
LINE
8
Calque 1
10
55.339548
20
70.650896
11
55.777659
21
70.358196
0
LINE
8
Calque 1
10
55.777659
20
70.358196
11
56.070361
21
69.920085
0
LINE
8
Calque 1
10
56.070361
20
69.920085
11
56.173067
21
69.403300
0
LINE
8
Calque 1
10
56.173067
20
69.403300
11
56.070215
21
68.886671
0
LINE
8
Calque 1
10
56.070215
20
68.886671
11
55.777479
21
68.448734
0
LINE
8
Calque 1
10
55.777479
20
68.448734
11
55.339430
21
68.156165
0
LINE
8
Calque 1
10
55.339430
20
68.156165
11
54.822762
21
68.053510
0
LINE
8
Calque 1
10
54.822762
20
68.053510
11
54.297400
21
68.159639
0
LINE
8
Calque 1
10
54.297400
20
68.159639
11
53.868378
21
68.448916
0
LINE
8
Calque 1
10
53.868378
20
68.448916
11
53.579102
21
68.877938
0
LINE
8
Calque 1
10
53.579102
20
68.877938
11
53.472973
21
69.403300
0
LINE
8
Calque 1
10
53.472973
20
69.403300
11
53.575629
21
69.919966
0
LINE
8
Calque 1
10
53.575629
20
69.919966
11
53.868198
21
70.358013
0
LINE
8
Calque 1
10
53.868198
20
70.358013
11
54.306135
21
70.650748
0
LINE
8
Calque 1
10
54.306135
20
70.650748
11
54.822762
21
70.753600
0
LINE
8
Calque 1
10
54.822762
20
70.753600
11
54.822762
21
70.753600
0
LINE
8
Calque 1
10
112.822840
20
70.753600
11
113.339467
21
70.650748
0
LINE
8
Calque 1
10
113.339467
20
70.650748
11
113.777404
21
70.358014
0
LINE
8
Calque 1
10
113.777404
20
70.358014
11
114.069974
21
69.919966
0
LINE
8
Calque 1
10
114.069974
20
69.919966
11
114.172630
21
69.403300
0
LINE
8
Calque 1
10
114.172630
20
69.403300
11
114.066501
21
68.877937
0
LINE
8
Calque 1
10
114.066501
20
68.877937
11
113.777224
21
68.448916
0
LINE
8
Calque 1
10
113.777224
20
68.448916
11
113.348203
21
68.159639
0
LINE
8
Calque 1
10
113.348203
20
68.159639
11
112.822840
21
68.053510
0
LINE
8
Calque 1
10
112.822840
20
68.053510
11
112.297481
21
68.159642
0
LINE
8
Calque 1
10
112.297481
20
68.159642
11
111.868462
21
68.448919
0
LINE
8
Calque 1
10
111.868462
20
68.448919
11
111.579188
21
68.877940
0
LINE
8
Calque 1
10
111.579188
20
68.877940
11
111.473060
21
69.403300
0
LINE
8
Calque 1
10
111.473060
20
69.403300
11
111.575715
21
69.919964
0
LINE
8
Calque 1
10
111.575715
20
69.919964
11
111.868282
21
70.358010
0
LINE
8
Calque 1
10
111.868282
20
70.358010
11
112.306216
21
70.650746
0
LINE
8
Calque 1
10
112.306216
20
70.650746
11
112.822840
21
70.753600
0
LINE
8
Calque 1
10
112.822840
20
70.753600
11
112.822840
21
70.753600
0
LINE
8
Calque 1
10
121.346930
20
291.094598
11
121.346930
21
261.094879
0
LINE
8
Calque 1
10
121.346930
20
261.094879
11
201.346700
21
261.094879
0
LINE
8
Calque 1
10
201.346700
20
261.094879
11
201.346700
21
291.094598
0
LINE
8
Calque 1
10
201.346700
20
291.094598
11
121.346930
21
291.094598
0
LINE
8
Calque 1
10
133.749280
20
283.357603
11
134.606390
21
283.187172
0
LINE
8
Calque 1
10
134.606390
20
283.187172
11
135.333013
21
282.701681
0
LINE
8
Calque 1
10
135.333013
20
282.701681
11
135.818502
21
281.975056
0
LINE
8
Calque 1
10
135.818502
20
281.975056
11
135.988930
21
281.117946
0
LINE
8
Calque 1
10
135.988930
20
281.117946
11
135.812833
21
280.246302
0
LINE
8
Calque 1
10
135.812833
20
280.246302
11
135.332830
21
279.534546
0
LINE
8
Calque 1
10
135.332830
20
279.534546
11
134.620964
21
279.054704
0
LINE
8
Calque 1
10
134.620964
20
279.054704
11
133.749280
21
278.878806
0
LINE
8
Calque 1
10
133.749280
20
278.878806
11
132.877593
21
279.054701
0
LINE
8
Calque 1
10
132.877593
20
279.054701
11
132.165724
21
279.534542
0
LINE
8
Calque 1
10
132.165724
20
279.534542
11
131.685718
21
280.246300
0
LINE
8
Calque 1
10
131.685718
20
280.246300
11
131.509620
21
281.117946
0
LINE
8
Calque 1
10
131.509620
20
281.117946
11
131.680049
21
281.975058
0
LINE
8
Calque 1
10
131.680049
20
281.975058
11
132.165541
21
282.701684
0
LINE
8
Calque 1
10
132.165541
20
282.701684
11
132.892167
21
283.187175
0
LINE
8
Calque 1
10
132.892167
20
283.187175
11
133.749280
21
283.357603
0
LINE
8
Calque 1
10
133.749280
20
283.357603
11
133.749280
21
283.357603
0
LINE
8
Calque 1
10
188.470490
20
283.357603
11
189.342132
21
283.181503
0
LINE
8
Calque 1
10
189.342132
20
283.181503
11
190.053886
21
282.701497
0
LINE
8
Calque 1
10
190.053886
20
282.701497
11
190.533725
21
281.989630
0
LINE
8
Calque 1
10
190.533725
20
281.989630
11
190.709620
21
281.117946
0
LINE
8
Calque 1
10
190.709620
20
281.117946
11
190.533576
21
280.246428
0
LINE
8
Calque 1
10
190.533576
20
280.246428
11
190.053704
21
279.534729
0
LINE
8
Calque 1
10
190.053704
20
279.534729
11
189.342007
21
279.054854
0
LINE
8
Calque 1
10
189.342007
20
279.054854
11
188.470490
21
278.878806
0
LINE
8
Calque 1
10
188.470490
20
278.878806
11
187.598803
21
279.054701
0
LINE
8
Calque 1
10
187.598803
20
279.054701
11
186.886934
21
279.534542
0
LINE
8
Calque 1
10
186.886934
20
279.534542
11
186.406928
21
280.246300
0
LINE
8
Calque 1
10
186.406928
20
280.246300
11
186.230830
21
281.117946
0
LINE
8
Calque 1
10
186.230830
20
281.117946
11
186.401259
21
281.975058
0
LINE
8
Calque 1
10
186.401259
20
281.975058
11
186.886751
21
282.701684
0
LINE
8
Calque 1
10
186.886751
20
282.701684
11
187.613377
21
283.187175
0
LINE
8
Calque 1
10
187.613377
20
283.187175
11
188.470490
21
283.357603
0
LINE
8
Calque 1
10
188.470490
20
283.357603
11
188.470490
21
283.357603
0
LINE
8
Calque 1
10
146.546950
20
279.151141
11
176.146690
21
279.151141
0
LINE
8
Calque 1
10
176.146690
20
279.151141
11
176.146690
21
276.151324
0
LINE
8
Calque 1
10
176.146690
20
276.151324
11
146.546950
21
276.151324
0
LINE
8
Calque 1
10
146.546950
20
276.151324
11
146.546950
21
279.151141
0
LINE
8
Calque 1
10
133.966840
20
273.303436
11
134.838485
21
273.127339
0
LINE
8
Calque 1
10
134.838485
20
273.127339
11
135.550243
21
272.647334
0
LINE
8
Calque 1
10
135.550243
20
272.647334
11
136.030083
21
271.935466
0
LINE
8
Calque 1
10
136.030083
20
271.935466
11
136.205980
21
271.063780
0
LINE
8
Calque 1
10
136.205980
20
271.063780
11
136.029935
21
270.192260
0
LINE
8
Calque 1
10
136.029935
20
270.192260
11
135.550060
21
269.480560
0
LINE
8
Calque 1
10
135.550060
20
269.480560
11
134.838360
21
269.000685
0
LINE
8
Calque 1
10
134.838360
20
269.000685
11
133.966840
21
268.824640
0
LINE
8
Calque 1
10
133.966840
20
268.824640
11
133.095153
21
269.000535
0
LINE
8
Calque 1
10
133.095153
20
269.000535
11
132.383284
21
269.480376
0
LINE
8
Calque 1
10
132.383284
20
269.480376
11
131.903278
21
270.192134
0
LINE
8
Calque 1
10
131.903278
20
270.192134
11
131.727180
21
271.063780
0
LINE
8
Calque 1
10
131.727180
20
271.063780
11
131.897609
21
271.920892
0
LINE
8
Calque 1
10
131.897609
20
271.920892
11
132.383101
21
272.647517
0
LINE
8
Calque 1
10
132.383101
20
272.647517
11
133.109728
21
273.133008
0
LINE
8
Calque 1
10
133.109728
20
273.133008
11
133.966840
21
273.303436
0
LINE
8
Calque 1
10
133.966840
20
273.303436
11
133.966840
21
273.303436
0
LINE
8
Calque 1
10
188.470490
20
273.303436
11
189.342132
21
273.127336
0
LINE
8
Calque 1
10
189.342132
20
273.127336
11
190.053886
21
272.647330
0
LINE
8
Calque 1
10
190.053886
20
272.647330
11
190.533724
21
271.935463
0
LINE
8
Calque 1
10
190.533724
20
271.935463
11
190.709620
21
271.063780
0
LINE
8
Calque 1
10
190.709620
20
271.063780
11
190.533576
21
270.192262
0
LINE
8
Calque 1
10
190.533576
20
270.192262
11
190.053704
21
269.480563
0
LINE
8
Calque 1
10
190.053704
20
269.480563
11
189.342007
21
269.000688
0
LINE
8
Calque 1
10
189.342007
20
269.000688
11
188.470490
21
268.824640
0
LINE
8
Calque 1
10
188.470490
20
268.824640
11
187.598803
21
269.000535
0
LINE
8
Calque 1
10
187.598803
20
269.000535
11
186.886934
21
269.480376
0
LINE
8
Calque 1
10
186.886934
20
269.480376
11
186.406928
21
270.192134
0
LINE
8
Calque 1
10
186.406928
20
270.192134
11
186.230830
21
271.063780
0
LINE
8
Calque 1
10
186.230830
20
271.063780
11
186.401259
21
271.920892
0
LINE
8
Calque 1
10
186.401259
20
271.920892
11
186.886751
21
272.647517
0
LINE
8
Calque 1
10
186.886751
20
272.647517
11
187.613378
21
273.133008
0
LINE
8
Calque 1
10
187.613378
20
273.133008
11
188.470490
21
273.303436
0
LINE
8
Calque 1
10
188.470490
20
273.303436
11
188.470490
21
273.303436
0
LINE
8
Calque 1
10
3.471089
20
263.822952
11
3.471089
21
249.143745
0
LINE
8
Calque 1
10
3.471089
20
249.143745
11
18.471209
21
249.143745
0
LINE
8
Calque 1
10
18.471209
20
249.143745
11
18.471209
21
238.822928
0
LINE
8
Calque 1
10
18.471209
20
238.822928
11
33.471319
21
238.822928
0
LINE
8
Calque 1
10
33.471319
20
238.822928
11
33.471319
21
249.143745
0
LINE
8
Calque 1
10
33.471319
20
249.143745
11
48.470919
21
249.143745
0
LINE
8
Calque 1
10
48.470919
20
249.143745
11
48.470919
21
263.822952
0
LINE
8
Calque 1
10
48.470919
20
263.822952
11
3.471089
21
263.822952
0
LINE
8
Calque 1
10
26.501209
20
244.585883
11
27.459941
21
244.392186
0
LINE
8
Calque 1
10
27.459941
20
244.392186
11
28.242816
21
243.864226
0
LINE
8
Calque 1
10
28.242816
20
243.864226
11
28.770612
21
243.081241
0
LINE
8
Calque 1
10
28.770612
20
243.081241
11
28.964109
21
242.122468
0
LINE
8
Calque 1
10
28.964109
20
242.122468
11
28.770464
21
241.163861
0
LINE
8
Calque 1
10
28.770464
20
241.163861
11
28.242634
21
240.381044
0
LINE
8
Calque 1
10
28.242634
20
240.381044
11
27.459816
21
239.853214
0
LINE
8
Calque 1
10
27.459816
20
239.853214
11
26.501209
21
239.659569
0
LINE
8
Calque 1
10
26.501209
20
239.659569
11
25.542435
21
239.853064
0
LINE
8
Calque 1
10
25.542435
20
239.853064
11
24.759448
21
240.380860
0
LINE
8
Calque 1
10
24.759448
20
240.380860
11
24.231487
21
241.163735
0
LINE
8
Calque 1
10
24.231487
20
241.163735
11
24.037789
21
242.122468
0
LINE
8
Calque 1
10
24.037789
20
242.122468
11
24.225267
21
243.065200
0
LINE
8
Calque 1
10
24.225267
20
243.065200
11
24.759266
21
243.864410
0
LINE
8
Calque 1
10
24.759266
20
243.864410
11
25.558477
21
244.398407
0
LINE
8
Calque 1
10
25.558477
20
244.398407
11
26.501209
21
244.585883
0
LINE
8
Calque 1
10
26.501209
20
244.585883
11
26.501209
21
244.585883
0
LINE
8
Calque 1
10
15.000118
20
39.155270
11
15.000118
21
23.023440
0
LINE
8
Calque 1
10
15.000118
20
23.023440
11
0.000000
21
23.023440
0
LINE
8
Calque 1
10
0.000000
20
23.023440
11
0.000000
21
0.079110
0
LINE
8
Calque 1
10
0.000000
20
0.079110
11
44.999837
21
0.079110
0
LINE
8
Calque 1
10
44.999837
20
0.079110
11
44.999837
21
23.023440
0
LINE
8
Calque 1
10
44.999837
20
23.023440
11
30.000236
21
23.023440
0
LINE
8
Calque 1
10
30.000236
20
23.023440
11
30.000236
21
39.155270
0
LINE
8
Calque 1
10
30.000236
20
39.155270
11
15.000118
21
39.155270
0
LINE
8
Calque 1
10
15.000118
20
39.155270
11
15.000118
21
39.155270
0
LINE
8
Calque 1
10
23.030119
20
36.381280
11
23.526518
21
36.302950
0
LINE
8
Calque 1
10
23.526518
20
36.302950
11
23.988854
21
36.078523
0
LINE
8
Calque 1
10
23.988854
20
36.078523
11
24.771730
21
35.253301
0
LINE
8
Calque 1
10
24.771730
20
35.253301
11
25.299525
21
34.029466
0
LINE
8
Calque 1
10
25.299525
20
34.029466
11
25.493018
21
32.530870
0
LINE
8
Calque 1
10
25.493018
20
32.530870
11
25.299335
21
31.032605
0
LINE
8
Calque 1
10
25.299335
20
31.032605
11
24.771497
21
29.809105
0
LINE
8
Calque 1
10
24.771497
20
29.809105
11
23.988694
21
28.984143
0
LINE
8
Calque 1
10
23.988694
20
28.984143
11
23.526429
21
28.759792
0
LINE
8
Calque 1
10
23.526429
20
28.759792
11
23.030119
21
28.681490
0
LINE
8
Calque 1
10
23.030119
20
28.681490
11
22.533729
21
28.759651
0
LINE
8
Calque 1
10
22.533729
20
28.759651
11
22.071378
21
28.983910
0
LINE
8
Calque 1
10
22.071378
20
28.983910
11
21.288407
21
29.808819
0
LINE
8
Calque 1
10
21.288407
20
29.808819
11
20.760438
21
31.032409
0
LINE
8
Calque 1
10
20.760438
20
31.032409
11
20.566703
21
32.530870
0
LINE
8
Calque 1
10
20.566703
20
32.530870
11
20.754177
21
34.004392
0
LINE
8
Calque 1
10
20.754177
20
34.004392
11
21.288174
21
35.253587
0
LINE
8
Calque 1
10
21.288174
20
35.253587
11
22.087385
21
36.088246
0
LINE
8
Calque 1
10
22.087385
20
36.088246
11
23.030119
21
36.381280
0
LINE
8
Calque 1
10
23.030119
20
36.381280
11
23.030119
21
36.381280
0
LINE
8
Calque 1
10
32.057475
20
21.990430
11
32.708119
21
21.861055
0
LINE
8
Calque 1
10
32.708119
20
21.861055
11
33.259709
21
21.492513
0
LINE
8
Calque 1
10
33.259709
20
21.492513
11
33.628253
21
20.940923
0
LINE
8
Calque 1
10
33.628253
20
20.940923
11
33.757629
21
20.290280
0
LINE
8
Calque 1
10
33.757629
20
20.290280
11
33.628255
21
19.639633
0
LINE
8
Calque 1
10
33.628255
20
19.639633
11
33.259713
21
19.088041
0
LINE
8
Calque 1
10
33.259713
20
19.088041
11
32.708121
21
18.719496
0
LINE
8
Calque 1
10
32.708121
20
18.719496
11
32.057475
21
18.590120
0
LINE
8
Calque 1
10
32.057475
20
18.590120
11
31.406829
21
18.719496
0
LINE
8
Calque 1
10
31.406829
20
18.719496
11
30.855237
21
19.088040
0
LINE
8
Calque 1
10
30.855237
20
19.088040
11
30.486694
21
19.639633
0
LINE
8
Calque 1
10
30.486694
20
19.639633
11
30.357320
21
20.290280
0
LINE
8
Calque 1
10
30.357320
20
20.290280
11
30.486697
21
20.940924
0
LINE
8
Calque 1
10
30.486697
20
20.940924
11
30.855240
21
21.492513
0
LINE
8
Calque 1
10
30.855240
20
21.492513
11
31.406831
21
21.861055
0
LINE
8
Calque 1
10
31.406831
20
21.861055
11
32.057475
21
21.990430
0
LINE
8
Calque 1
10
32.057475
20
21.990430
11
32.057475
21
21.990430
0
LINE
8
Calque 1
10
32.571139
20
4.436980
11
33.232778
21
4.303265
0
LINE
8
Calque 1
10
33.232778
20
4.303265
11
33.773042
21
3.938877
0
LINE
8
Calque 1
10
33.773042
20
3.938877
11
34.137264
21
3.398500
0
LINE
8
Calque 1
10
34.137264
20
3.398500
11
34.270776
21
2.736820
0
LINE
8
Calque 1
10
34.270776
20
2.736820
11
34.137262
21
2.075143
0
LINE
8
Calque 1
10
34.137262
20
2.075143
11
33.773039
21
1.534770
0
LINE
8
Calque 1
10
33.773039
20
1.534770
11
33.232776
21
1.170384
0
LINE
8
Calque 1
10
33.232776
20
1.170384
11
32.571139
21
1.036670
0
LINE
8
Calque 1
10
32.571139
20
1.036670
11
31.920495
21
1.166045
0
LINE
8
Calque 1
10
31.920495
20
1.166045
11
31.368904
21
1.534587
0
LINE
8
Calque 1
10
31.368904
20
1.534587
11
31.000361
21
2.086176
0
LINE
8
Calque 1
10
31.000361
20
2.086176
11
30.870984
21
2.736820
0
LINE
8
Calque 1
10
30.870984
20
2.736820
11
31.000358
21
3.387467
0
LINE
8
Calque 1
10
31.000358
20
3.387467
11
31.368901
21
3.939060
0
LINE
8
Calque 1
10
31.368901
20
3.939060
11
31.920493
21
4.307604
0
LINE
8
Calque 1
10
31.920493
20
4.307604
11
32.571139
21
4.436980
0
LINE
8
Calque 1
10
32.571139
20
4.436980
11
32.571139
21
4.436980
0
LINE
8
Calque 1
10
0.000000
20
297.000000
11
0.000000
21
282.320793
0
LINE
8
Calque 1
10
0.000000
20
282.320793
11
15.000120
21
282.320793
0
LINE
8
Calque 1
10
15.000120
20
282.320793
11
15.000120
21
271.999976
0
LINE
8
Calque 1
10
15.000120
20
271.999976
11
30.000230
21
271.999976
0
LINE
8
Calque 1
10
30.000230
20
271.999976
11
30.000230
21
282.320793
0
LINE
8
Calque 1
10
30.000230
20
282.320793
11
44.999830
21
282.320793
0
LINE
8
Calque 1
10
44.999830
20
282.320793
11
44.999830
21
297.000000
0
LINE
8
Calque 1
10
44.999830
20
297.000000
11
0.000000
21
297.000000
0
LINE
8
Calque 1
10
23.030120
20
277.762931
11
23.988852
21
277.569234
0
LINE
8
Calque 1
10
23.988852
20
277.569234
11
24.771727
21
277.041274
0
LINE
8
Calque 1
10
24.771727
20
277.041274
11
25.299523
21
276.258289
0
LINE
8
Calque 1
10
25.299523
20
276.258289
11
25.493020
21
275.299516
0
LINE
8
Calque 1
10
25.493020
20
275.299516
11
25.299375
21
274.340909
0
LINE
8
Calque 1
10
25.299375
20
274.340909
11
24.771545
21
273.558092
0
LINE
8
Calque 1
10
24.771545
20
273.558092
11
23.988727
21
273.030262
0
LINE
8
Calque 1
10
23.988727
20
273.030262
11
23.030120
21
272.836617
0
LINE
8
Calque 1
10
23.030120
20
272.836617
11
22.071346
21
273.030112
0
LINE
8
Calque 1
10
22.071346
20
273.030112
11
21.288359
21
273.557908
0
LINE
8
Calque 1
10
21.288359
20
273.557908
11
20.760398
21
274.340783
0
LINE
8
Calque 1
10
20.760398
20
274.340783
11
20.566700
21
275.299516
0
LINE
8
Calque 1
10
20.566700
20
275.299516
11
20.754178
21
276.242248
0
LINE
8
Calque 1
10
20.754178
20
276.242248
11
21.288177
21
277.041458
0
LINE
8
Calque 1
10
21.288177
20
277.041458
11
22.087388
21
277.575455
0
LINE
8
Calque 1
10
22.087388
20
277.575455
11
23.030120
21
277.762931
0
LINE
8
Calque 1
10
23.030120
20
277.762931
11
23.030120
21
277.762931
0
LINE
8
Calque 1
10
104.581380
20
21.487580
11
149.581380
21
21.487580
0
LINE
8
Calque 1
10
149.581380
20
21.487580
11
149.581380
21
6.833620
0
LINE
8
Calque 1
10
149.581380
20
6.833620
11
104.581380
21
6.833620
0
LINE
8
Calque 1
10
104.581380
20
6.833620
11
104.581380
21
21.487580
0
LINE
8
Calque 1
10
155.674040
20
23.003270
11
200.674040
21
23.003270
0
LINE
8
Calque 1
10
200.674040
20
23.003270
11
200.674040
21
8.349310
0
LINE
8
Calque 1
10
200.674040
20
8.349310
11
155.674040
21
8.349310
0
LINE
8
Calque 1
10
155.674040
20
8.349310
11
155.674040
21
23.003270
0
LINE
8
Calque 1
10
157.664660
20
227.185265
11
202.664660
21
227.185265
0
LINE
8
Calque 1
10
202.664660
20
227.185265
11
202.664660
21
212.531305
0
LINE
8
Calque 1
10
202.664660
20
212.531305
11
157.664660
21
212.531305
0
LINE
8
Calque 1
10
157.664660
20
212.531305
11
157.664660
21
227.185265
0
LINE
8
Calque 1
10
206.070790
20
151.641800
11
206.070790
21
106.641800
0
LINE
8
Calque 1
10
206.070790
20
106.641800
11
191.416830
21
106.641800
0
LINE
8
Calque 1
10
191.416830
20
106.641800
11
191.416830
21
151.641800
0
LINE
8
Calque 1
10
191.416830
20
151.641800
11
206.070790
21
151.641800
0
LINE
8
Calque 1
10
102.590750
20
41.517850
11
147.590750
21
41.517850
0
LINE
8
Calque 1
10
147.590750
20
41.517850
11
147.590750
21
26.863890
0
LINE
8
Calque 1
10
147.590750
20
26.863890
11
102.590750
21
26.863890
0
LINE
8
Calque 1
10
102.590750
20
26.863890
11
102.590750
21
41.517850
0
LINE
8
Calque 1
10
151.029250
20
251.070774
11
196.029250
21
251.070774
0
LINE
8
Calque 1
10
196.029250
20
251.070774
11
196.029250
21
236.416814
0
LINE
8
Calque 1
10
196.029250
20
236.416814
11
151.029250
21
236.416814
0
LINE
8
Calque 1
10
151.029250
20
236.416814
11
151.029250
21
251.070774
0
LINE
8
Calque 1
10
205.407240
20
159.591690
11
205.407240
21
204.591690
0
LINE
8
Calque 1
10
205.407240
20
204.591690
11
190.753280
21
204.591690
0
LINE
8
Calque 1
10
190.753280
20
204.591690
11
190.753280
21
159.591690
0
LINE
8
Calque 1
10
190.753280
20
159.591690
11
205.407240
21
159.591690
0
LINE
8
Calque 1
10
206.734310
20
94.570360
11
206.734310
21
49.570360
0
LINE
8
Calque 1
10
206.734310
20
49.570360
11
192.080350
21
49.570360
0
LINE
8
Calque 1
10
192.080350
20
49.570360
11
192.080350
21
94.570360
0
LINE
8
Calque 1
10
192.080350
20
94.570360
11
206.734310
21
94.570360
0
LINE
8
Calque 1
10
64.363464
20
294.345840
11
94.163463
21
294.345840
0
LINE
8
Calque 1
10
94.163463
20
294.345840
11
94.163463
21
264.345840
0
LINE
8
Calque 1
10
94.163463
20
264.345840
11
64.363464
21
264.345840
0
LINE
8
Calque 1
10
64.363464
20
264.345840
11
64.363464
21
294.345840
0
LINE
8
Calque 1
10
64.741816
20
39.155270
11
64.741816
21
23.023440
0
LINE
8
Calque 1
10
64.741816
20
23.023440
11
49.741692
21
23.023440
0
LINE
8
Calque 1
10
49.741692
20
23.023440
11
49.741692
21
0.079110
0
LINE
8
Calque 1
10
49.741692
20
0.079110
11
94.741535
21
0.079110
0
LINE
8
Calque 1
10
94.741535
20
0.079110
11
94.741535
21
23.023440
0
LINE
8
Calque 1
10
94.741535
20
23.023440
11
79.741934
21
23.023440
0
LINE
8
Calque 1
10
79.741934
20
23.023440
11
79.741934
21
39.155270
0
LINE
8
Calque 1
10
79.741934
20
39.155270
11
64.741816
21
39.155270
0
LINE
8
Calque 1
10
72.771817
20
36.381280
11
73.268216
21
36.302950
0
LINE
8
Calque 1
10
73.268216
20
36.302950
11
73.730552
21
36.078523
0
LINE
8
Calque 1
10
73.730552
20
36.078523
11
74.513428
21
35.253301
0
LINE
8
Calque 1
10
74.513428
20
35.253301
11
75.041223
21
34.029466
0
LINE
8
Calque 1
10
75.041223
20
34.029466
11
75.234716
21
32.530870
0
LINE
8
Calque 1
10
75.234716
20
32.530870
11
75.041033
21
31.032605
0
LINE
8
Calque 1
10
75.041033
20
31.032605
11
74.513195
21
29.809105
0
LINE
8
Calque 1
10
74.513195
20
29.809105
11
73.730392
21
28.984143
0
LINE
8
Calque 1
10
73.730392
20
28.984143
11
73.268127
21
28.759792
0
LINE
8
Calque 1
10
73.268127
20
28.759792
11
72.771817
21
28.681490
0
LINE
8
Calque 1
10
72.771817
20
28.681490
11
72.275427
21
28.759651
0
LINE
8
Calque 1
10
72.275427
20
28.759651
11
71.813076
21
28.983910
0
LINE
8
Calque 1
10
71.813076
20
28.983910
11
71.030105
21
29.808819
0
LINE
8
Calque 1
10
71.030105
20
29.808819
11
70.502136
21
31.032409
0
LINE
8
Calque 1
10
70.502136
20
31.032409
11
70.308401
21
32.530870
0
LINE
8
Calque 1
10
70.308401
20
32.530870
11
70.495875
21
34.004392
0
LINE
8
Calque 1
10
70.495875
20
34.004392
11
71.029872
21
35.253587
0
LINE
8
Calque 1
10
71.029872
20
35.253587
11
71.829083
21
36.088246
0
LINE
8
Calque 1
10
71.829083
20
36.088246
11
72.771817
21
36.381280
0
LINE
8
Calque 1
10
72.771817
20
36.381280
11
72.771817
21
36.381280
0
LINE
8
Calque 1
10
81.799173
20
21.990430
11
82.449817
21
21.861055
0
LINE
8
Calque 1
10
82.449817
20
21.861055
11
83.001407
21
21.492513
0
LINE
8
Calque 1
10
83.001407
20
21.492513
11
83.369951
21
20.940923
0
LINE
8
Calque 1
10
83.369951
20
20.940923
11
83.499327
21
20.290280
0
LINE
8
Calque 1
10
83.499327
20
20.290280
11
83.369953
21
19.639633
0
LINE
8
Calque 1
10
83.369953
20
19.639633
11
83.001411
21
19.088041
0
LINE
8
Calque 1
10
83.001411
20
19.088041
11
82.449819
21
18.719496
0
LINE
8
Calque 1
10
82.449819
20
18.719496
11
81.799173
21
18.590120
0
LINE
8
Calque 1
10
81.799173
20
18.590120
11
81.148527
21
18.719496
0
LINE
8
Calque 1
10
81.148527
20
18.719496
11
80.596935
21
19.088040
0
LINE
8
Calque 1
10
80.596935
20
19.088040
11
80.228392
21
19.639633
0
LINE
8
Calque 1
10
80.228392
20
19.639633
11
80.099018
21
20.290280
0
LINE
8
Calque 1
10
80.099018
20
20.290280
11
80.228395
21
20.940924
0
LINE
8
Calque 1
10
80.228395
20
20.940924
11
80.596938
21
21.492513
0
LINE
8
Calque 1
10
80.596938
20
21.492513
11
81.148529
21
21.861055
0
LINE
8
Calque 1
10
81.148529
20
21.861055
11
81.799173
21
21.990430
0
LINE
8
Calque 1
10
81.799173
20
21.990430
11
81.799173
21
21.990430
0
LINE
8
Calque 1
10
82.312837
20
4.436980
11
82.974476
21
4.303265
0
LINE
8
Calque 1
10
82.974476
20
4.303265
11
83.514740
21
3.938877
0
LINE
8
Calque 1
10
83.514740
20
3.938877
11
83.878962
21
3.398500
0
LINE
8
Calque 1
10
83.878962
20
3.398500
11
84.012474
21
2.736820
0
LINE
8
Calque 1
10
84.012474
20
2.736820
11
83.878960
21
2.075143
0
LINE
8
Calque 1
10
83.878960
20
2.075143
11
83.514737
21
1.534770
0
LINE
8
Calque 1
10
83.514737
20
1.534770
11
82.974474
21
1.170384
0
LINE
8
Calque 1
10
82.974474
20
1.170384
11
82.312837
21
1.036670
0
LINE
8
Calque 1
10
82.312837
20
1.036670
11
81.662193
21
1.166045
0
LINE
8
Calque 1
10
81.662193
20
1.166045
11
81.110602
21
1.534587
0
LINE
8
Calque 1
10
81.110602
20
1.534587
11
80.742059
21
2.086176
0
LINE
8
Calque 1
10
80.742059
20
2.086176
11
80.612682
21
2.736820
0
LINE
8
Calque 1
10
80.612682
20
2.736820
11
80.742056
21
3.387467
0
LINE
8
Calque 1
10
80.742056
20
3.387467
11
81.110599
21
3.939060
0
LINE
8
Calque 1
10
81.110599
20
3.939060
11
81.662191
21
4.307604
0
LINE
8
Calque 1
10
81.662191
20
4.307604
11
82.312837
21
4.436980
0
LINE
8
Calque 1
10
82.312837
20
4.436980
11
82.312837
21
4.436980
 0 
ENDSEC
 0 
EOF